<?xml version="1.0" encoding="UTF-8" standalone="no"?>
<!-- Created with Inkscape (http://www.inkscape.org/) -->

<svg
   width="211.66666mm"
   height="211.72064mm"
   viewBox="0 0 211.66666 211.72064"
   version="1.1"
   id="svg5"
   xml:space="preserve"
   xmlns:inkscape="http://www.inkscape.org/namespaces/inkscape"
   xmlns:sodipodi="http://sodipodi.sourceforge.net/DTD/sodipodi-0.dtd"
   xmlns="http://www.w3.org/2000/svg"
   xmlns:svg="http://www.w3.org/2000/svg"><sodipodi:namedview
     id="namedview7"
     pagecolor="#ffffff"
     bordercolor="#000000"
     borderopacity="0.25"
     inkscape:showpageshadow="2"
     inkscape:pageopacity="0.0"
     inkscape:pagecheckerboard="0"
     inkscape:deskcolor="#d1d1d1"
     inkscape:document-units="mm"
     showgrid="false" /><defs
     id="defs2"><clipPath
       clipPathUnits="userSpaceOnUse"
       id="clipPath555"><rect
         style="fill:#a7c571;stroke-width:0.264583"
         id="rect557"
         width="62.951614"
         height="86.171478"
         x="-184.21088"
         y="159.95903" /></clipPath></defs><g
     inkscape:label="Layer 1"
     inkscape:groupmode="layer"
     id="layer1"
     transform="translate(-292.73557,-47.524432)"><g
       id="g777"
       transform="translate(-14.963909,12.383924)"
       inkscape:export-filename=".\g777.svg"
       inkscape:export-xdpi="96"
       inkscape:export-ydpi="96"><g
         id="g576"
         clip-path="none"
         transform="translate(219.29866,36.119779)"
         inkscape:export-filename="cv_icon.svg"
         inkscape:export-xdpi="96"
         inkscape:export-ydpi="96"><g
           inkscape:label="Clip"
           id="g574"><path
             id="path566"
             style="fill:#000000;fill-rule:evenodd;stroke:none;stroke-width:10.5833"
             d="m 109.56747,-0.97926839 c -11.683986,0 -21.166664,9.47209489 -21.166664,21.16666639 v 74.083334 c 0,5.841998 4.741339,10.583328 10.583333,10.583328 5.852581,0 10.583331,-4.74133 10.583331,-10.583328 v -63.5 c 0,-5.841995 4.74134,-10.583334 10.58334,-10.583334 h 95.25051 v 42.333334 c 0,11.683984 9.48216,21.166666 21.16615,21.166666 h 42.33385 V 178.9374 c 0,5.84199 -4.73126,10.58333 -10.58385,10.58333 h -10.58281 c -5.842,0 -10.58334,4.74134 -10.58334,10.58333 0,5.842 4.74134,10.58334 10.58334,10.58334 h 21.16666 c 11.69457,0 21.16615,-9.48268 21.16615,-21.16667 V 62.362085 c 0,-2.952747 -1.22737,-5.7786 -3.40754,-7.778853 L 239.39366,1.8148763 c -1.95791,-1.79916518 -4.51938,-2.79414469 -7.17579,-2.79414469 z" /></g></g><g
         inkscape:label="Clip"
         id="use580"
         transform="translate(219.29866,36.119779)"><path
           id="path764"
           style="fill:#000000;fill-rule:evenodd;stroke:none;stroke-width:10.5833"
           d="m 109.56747,-0.97926839 c -11.683986,0 -21.166664,9.47209489 -21.166664,21.16666639 v 74.083334 c 0,5.841998 4.741339,10.583328 10.583333,10.583328 5.852581,0 10.583331,-4.74133 10.583331,-10.583328 v -63.5 c 0,-5.841995 4.74134,-10.583334 10.58334,-10.583334 h 95.25051 v 42.333334 c 0,11.683984 9.48216,21.166666 21.16615,21.166666 h 42.33385 V 178.9374 c 0,5.84199 -4.73126,10.58333 -10.58385,10.58333 h -10.58281 c -5.842,0 -10.58334,4.74134 -10.58334,10.58333 0,5.842 4.74134,10.58334 10.58334,10.58334 h 21.16666 c 11.69457,0 21.16615,-9.48268 21.16615,-21.16667 V 62.362085 c 0,-2.952747 -1.22737,-5.7786 -3.40754,-7.778853 L 239.39366,1.8148763 c -1.95791,-1.79916518 -4.51938,-2.79414469 -7.17579,-2.79414469 z" /></g><path
         id="path390"
         style="fill:#000000;fill-rule:evenodd;stroke:none;stroke-width:10.5833"
         d="m 354.97342,162.19448 c -24.75438,0 -44.53471,21.24096 -42.13231,46.49277 2.0955,22.01331 21.84431,38.1739 43.95287,38.1739 h 8.76278 c 5.85257,0 10.58333,-4.74134 10.58333,-10.58334 0,-5.84199 -4.73076,-10.58333 -10.58333,-10.58333 h -9.45059 c -10.54099,0 -20.32004,-7.20689 -22.00279,-17.6103 -2.159,-13.2609 8.0219,-24.72303 20.87004,-24.72303 h 10.58334 c 5.85257,0 10.58333,-4.74134 10.58333,-10.58334 0,-5.84199 -4.73076,-10.58333 -10.58333,-10.58333 z"
         clip-path="none" /><g
         id="g542"
         clip-path="url(#clipPath555)"
         transform="translate(571.20849,0.67667062)"><g
           inkscape:label="Clip"
           id="g540"><path
             d="m -49.812151,98.483475 -57.679159,-60.67425 c -2.00025,-2.0955 -4.77309,-3.291416 -7.67292,-3.291416 h -122.2375 c -11.684,0 -21.16667,9.482666 -21.16667,21.166666 v 74.083335 c 0,5.842 4.74134,10.58333 10.58334,10.58333 5.85258,0 10.58333,-4.74133 10.58333,-10.58333 V 66.267809 c 0,-5.842 4.74133,-10.583334 10.58333,-10.583334 h 95.25 v 42.333334 c 0,11.694581 9.48267,21.166671 21.16667,21.166671 h 42.333329 v 10.58333 c 0,5.842 4.74134,10.58333 10.58334,10.58333 5.85258,0 10.58333,-4.74133 10.58333,-10.58333 v -23.99242 c 0,-2.70933 -1.03717,-5.32341 -2.91042,-7.291915 m -83.068579,63.034335 c -5.29167,0 -9.75783,3.94758 -10.414,9.19691 l -6.7945,54.30309 h -5.29167 l -6.78391,-54.30309 c -0.65617,-5.24933 -5.12234,-9.19691 -10.42459,-9.19691 -6.31825,0 -11.19716,5.53508 -10.414,11.811 l 7.94809,63.58466 c 0.65616,5.30225 5.16466,9.271 10.49866,9.271 h 23.64317 c 5.34458,0 9.8425,-3.96875 10.50925,-9.271 l 7.94808,-63.58466 c 0.78317,-6.27592 -4.10633,-11.811 -10.42458,-11.811 m 65.944749,21.16666 h 9.45092 c 5.85258,0 10.58333,-4.74133 10.58333,-10.58333 0,-5.842 -4.73075,-10.58333 -10.58333,-10.58333 h -10.58334 c -24.75441,0 -44.534659,21.24075 -42.132249,46.49258 2.0955,22.01333 21.843999,38.17408 43.952589,38.17408 h 8.763 c 5.85258,0 10.58333,-4.74133 10.58333,-10.58333 v -10.58333 -10.58334 c 0,-5.842 -4.73075,-10.58333 -10.58333,-10.58333 -5.842,0 -10.58334,4.74133 -10.58334,10.58333 v 10.58334 c -12.84816,0 -23.02933,-11.46175 -20.87033,-24.72267 1.69333,-10.40342 11.46175,-17.61067 22.00275,-17.61067 m -170.465749,5.29167 c 0,2.921 2.37067,5.29167 5.29167,5.29167 h 15.875 0.22225 c 11.56758,0 20.94441,9.37683 20.94441,20.94441 v 11.02784 c 0,11.56758 -9.37683,20.94441 -20.94441,20.94441 h -0.22225 -31.75 c -5.842,0 -10.58334,-4.74133 -10.58334,-10.58333 0,-5.842 4.74134,-10.58333 10.58334,-10.58333 h 26.45833 c 2.921,0 5.29167,-2.37067 5.29167,-5.29167 0,-2.921 -2.37067,-5.29167 -5.29167,-5.29167 h -15.875 c -11.684,0 -21.16667,-9.47208 -21.16667,-21.16666 v -10.58334 c 0,-11.684 9.48267,-21.16666 21.16667,-21.16666 h 31.75 c 5.85258,0 10.58333,4.74133 10.58333,10.58333 0,5.842 -4.73075,10.58333 -10.58333,10.58333 h -26.45833 c -2.921,0 -5.29167,2.37067 -5.29167,5.29167"
             id="file_svg-[#1771]"
             style="fill:#000000;fill-rule:evenodd;stroke:none;stroke-width:10.5833" /></g></g></g></g></svg>
